<?xml version="1.0" encoding="utf-8"?>
<svg width="1600" height="1600" viewBox="0 0 1200 1200" xmlns="http://www.w3.org/2000/svg">
  <g transform="matrix(0.89979, 0, 0, 0.89979, 62.449001, 104.661003)">
    <path d="M1096.488 914.326c-7.129 78.383-59.966 86.207-59.966 86.207l-902.759-.503-43.055-184.001h947.38c36.359 1.391 48.719.013 66.395-1.402 1.648-.132-7.989 99.695-7.989 99.695l-.006.004Zm-688.466 35.321v-89.114c0-4.094-1.906-7.403-6-7.403l-210-2.089-.769 1.067c-3.048.289-5.735 2.398-6.504 5.542l-1.309 5.352-.719 1.035h.481l-20.521 84.313a7.419 7.419 0 0 0 2.004 7.03 7.415 7.415 0 0 0 5.196 2.125c.624 0 .949-.07 1.558-.238l130.001-33.863 100.439 33.278c2.27.757 3.539.359 5.462-1.032 1.929-1.399.683-3.628.683-6.003h-.002Z" style="stroke: rgb(0, 0, 0); fill: white;"/>
    <path d="m1176.9 679.13-164.52-544.87-.371-.96c-.899-1.923-22.883-47.103-106.5-47.103-4.86 0-9.898.238-14.531.527l-664.98-.586-11.074 18.06-201.05 672.64-.613 3.312 80.176 287.86h973.26s4.87 0 13.645-2.953c2.074-.695 50.53-21.383 62.426-63.996 7.535-27.012-1.43-57.06-26.652-89.352l8.34-97.945c64.542-19.75 61.085-89.867 52.444-134.62zm-80.434 235.16c-7.129 78.383-59.965 86.207-59.965 86.207l-902.76-.504-43.055-184h947.38c36.359 1.39 48.719.012 66.395-1.402 1.648-.133-7.988 99.695-7.988 99.695z"/>
    <path d="M408 949.61v-89.113c0-4.094-1.906-7.402-6-7.402l-210-2.09-.77 1.066c-3.046.29-5.734 2.399-6.503 5.543l-1.309 5.352-.719 1.035h.48l-20.52 84.312a7.419 7.419 0 0 0 2.005 7.031 7.413 7.413 0 0 0 5.195 2.125c.625 0 .95-.07 1.558-.238l130-33.863 100.44 33.277c2.27.758 3.54.36 5.461-1.031 1.93-1.399.684-3.63.684-6.004z"/>
  </g>
  <g transform="matrix(0, -0.73523, 1.1579, 0, -129.440002, 956.958008)">
    <path d="M375.16 531.83c1.695 0 3.387-.848 5.082-1.695 2.54-2.54 2.54-7.621 0-10.164l-14.398-14.398c-2.54-2.54-7.621-2.54-10.164 0-2.54 2.539-2.54 7.62 0 10.164l14.398 14.398c1.691 1.695 3.387 1.695 5.082 1.695zM417.5 575.86c1.695 0 3.387-.848 5.082-1.695 2.54-2.54 2.54-7.621 0-10.164l-14.398-14.398c-2.54-2.54-7.621-2.54-10.164 0-2.54 2.539-2.54 7.62 0 10.164l14.398 14.398c.848.851 3.39 1.695 5.082 1.695zM226.11 379.39c1.695 1.695 3.387 2.54 5.082 2.54 1.695 0 3.387-.849 5.082-1.696 2.54-2.54 2.54-7.621 0-10.164l-6.773-6.774c-2.54-2.539-7.622-2.539-10.164 0-2.54 2.54-2.54 7.622 0 10.164zM261.68 415.81c1.695 1.695 3.387 2.54 5.082 2.54 1.695 0 3.387-.849 5.082-1.696 2.54-2.54 2.54-7.621 0-10.164l-12.703-12.703c-2.54-2.54-7.621-2.54-10.164 0-2.54 2.539-2.54 7.62 0 10.164zM879.04 541.99h18.633c4.234 0 6.773-3.387 6.773-6.773 0-3.387-3.386-6.774-6.773-6.774H879.04c-4.234 0-6.773 3.387-6.773 6.774 0 3.386 2.539 6.773 6.773 6.773zM930.7 541.99h18.633c4.234 0 6.773-3.387 6.773-6.773 0-3.387-3.386-6.774-6.773-6.774H930.7c-4.234 0-6.773 3.387-6.773 6.774-.004 3.386 2.539 6.773 6.773 6.773zM982.36 541.99h18.633c4.234 0 6.773-3.387 6.773-6.773 0-3.387-3.386-6.774-6.773-6.774H982.36c-4.234 0-6.773 3.387-6.773 6.774 0 3.386 3.386 6.773 6.773 6.773zM902.75 857.87h-18.633c-4.234 0-6.773 3.387-6.773 6.773s3.386 6.774 6.773 6.774h18.633c4.234 0 6.773-3.387 6.773-6.774 0-3.382-2.539-6.773-6.773-6.773zM851.09 857.87h-18.633c-4.234 0-6.773 3.387-6.773 6.773s3.386 6.774 6.773 6.774h18.633c4.234 0 6.773-3.387 6.773-6.774 0-3.382-2.539-6.773-6.773-6.773zM309.95 778.27c-4.234 0-6.773 3.387-6.773 6.773v18.633c0 4.235 3.386 6.774 6.773 6.774 4.234 0 6.773-3.387 6.773-6.774v-18.633c.852-3.386-2.539-6.773-6.773-6.773zM309.95 726.61c-4.234 0-6.773 3.387-6.773 6.773v18.633c0 4.235 3.386 6.774 6.773 6.774 4.234 0 6.773-3.387 6.773-6.774v-18.633c.852-3.386-2.539-6.773-6.773-6.773zM309.95 882.43c-4.234 0-6.773 3.387-6.773 6.773v18.633c0 4.235 3.386 6.774 6.773 6.774 4.234 0 6.773-3.387 6.773-6.774v-18.633c.852-4.23-2.539-6.773-6.773-6.773zM309.95 829.92c-4.234 0-6.773 3.387-6.773 6.773v18.633c0 4.235 3.386 6.774 6.773 6.774 4.234 0 6.773-3.387 6.773-6.774v-18.633c.852-3.386-2.539-6.773-6.773-6.773z" style="fill: white;"/>
    <path d="M1007.767 614.812c-3.387 14.398-16.938 25.406-32.18 25.406-16.09 0-28.793-11.008-32.18-25.406h-77.062c-1.695 11.008-10.164 20.325-21.172 23.711-3.39.848-6.777 1.696-10.164 1.696-13.547 0-27.097-8.469-31.332-22.02 0-.848-.847-2.539-.847-3.387h-17.785c-1.695 11.008-10.164 20.324-21.172 23.711-3.391.848-6.778 1.695-10.164 1.695-7.621 0-15.243-2.539-21.172-7.621l-111.79 103.32c-8.469 6.774-18.633 11.008-29.641 11.008h-1.696c-11.855-.847-22.866-5.929-30.488-14.398l-22.02-24.559c-3.386 2.543-6.773 4.234-11.008 5.082l-.847 114.32c0 8.469 2.539 15.242 8.469 21.172 5.93 5.082 13.551 8.469 21.172 8.469h45.73c3.387-14.398 16.938-25.406 32.18-25.406 16.09 0 28.793 11.008 32.18 25.406h28.793c3.386-22.019 22.867-38.957 45.73-38.957 22.867 0 42.343 16.937 45.73 38.957h14.398c3.386 0 6.773 3.387 6.773 6.773 0 3.387-2.539 6.774-6.773 6.774h-14.398c-3.386 22.019-22.867 38.957-45.73 38.957-22.867 0-42.344-16.938-45.73-39.801h-28.793c-3.387 15.246-16.09 26.254-32.18 26.254s-28.794-11.856-32.18-26.254h-44.883c-11.011 0-22.02-4.235-30.488-12.703-8.469-7.625-12.703-18.633-12.703-30.488l.847-114.32c-15.246-3.387-26.254-16.09-26.254-32.18 0-7.621 3.387-14.395 7.621-20.324l-22.02-23.711c-4.234 2.539-9.316 3.386-14.398 3.386-12.703 28.793-40.649 48.27-73.676 48.27h-21.172c-1.695 11.008-10.164 20.325-21.172 23.711-11.011 3.387-22.019 1.692-30.488-5.082-2.543 2.543-5.929 4.235-9.316 5.082-3.391.848-6.777 1.696-10.164 1.696-14.394 0-27.098-8.469-31.332-22.02 0-.848-.848-2.539-.848-3.387h-98.89v-13.547h98.89c.844-2.539 1.692-5.082 2.539-7.621 3.391-7.621 10.165-13.551 18.633-16.09 11.011-3.387 22.02-1.691 30.488 5.082 2.543-2.543 5.93-4.234 9.317-5.082 7.621-2.539 16.938-2.539 24.559 1.695 7.621 3.391 13.551 10.165 16.09 18.633 0 .848.847 2.539.847 3.387h21.172c26.254 0 49.121-15.242 60.129-37.262-11.011-5.082-18.633-16.938-18.633-29.641 0-18.629 15.242-33.027 33.027-33.027 12.703-28.793 40.649-48.27 73.676-48.27h43.191c2.543-9.317 8.469-17.786 17.785-22.02-11.012-22.02-33.875-37.262-60.129-37.262h-176.15c-3.387 23.711-24.558 42.344-49.117 42.344-25.406 0-45.73-18.633-49.117-42.344h-97.197v-13.547h97.197c3.387-23.711 24.558-42.344 49.117-42.344 25.406 0 45.731 18.633 49.117 42.344h176.15c33.028 0 60.973 20.325 73.676 48.27 16.09 0 28.794 11.008 32.18 25.406h155.82c.844-5.082 3.387-9.316 6.774-13.551l-51.66-54.199c-6.778 3.387-14.399 5.082-22.02 5.082-25.406 0-46.578-21.172-46.578-46.578 0-9.317 2.539-17.785 6.773-24.559l-42.344-44.883c-4.234 2.539-9.316 3.387-14.398 3.387-18.629 0-33.027-15.242-33.027-33.027 0-18.629 15.242-33.027 33.027-33.027 18.629 0 33.027 15.242 33.027 33.027 0 7.621-3.386 14.394-7.621 20.324l40.648 43.191c8.468-6.774 18.633-11.008 30.488-11.008 25.406 0 46.578 21.172 46.578 46.578 0 12.703-5.082 23.711-13.551 32.18l51.66 54.199c4.235-2.539 8.469-3.387 13.551-3.387 18.629 0 33.027 15.242 33.027 33.027 0 18.629-15.242 33.027-33.027 33.027-5.93 0-11.856-1.695-16.938-5.082l-28.793 27.098c1.695 3.387 3.387 5.93 4.235 9.317 0 .847.847 2.539.847 3.386h17.785c.844-2.539 1.692-5.082 2.539-7.621 3.391-7.621 10.165-13.551 18.633-16.09 16.937-5.93 35.567 3.386 41.496 20.324 0 .848.848 2.539.848 3.387h77.062c3.387-14.398 16.938-25.406 32.18-25.406 16.09 0 28.793 11.008 32.18 25.406h46.121v13.542ZM343.796 460.694c0-19.476-16.089-35.566-35.566-35.566-19.476 0-35.566 16.089-35.566 35.566 0 19.476 16.089 35.566 35.566 35.566 19.476 0 35.566-16.089 35.566-35.566Zm-7.622 239.657c9.316-3.387 15.242-13.547 11.863-23.715-1.695-5.079-5.082-8.469-9.316-11.008-5.082-1.696-9.316-2.543-14.398-.848-3.387.848-5.93 3.391-8.469 5.93l-5.082 6.773-5.082-6.773c-3.39-4.235-9.316-6.774-14.398-6.774-1.695 0-4.234 0-5.93.848-10.159 3.387-15.241 14.395-11.855 23.711 3.387 10.16 14.395 15.242 23.711 11.855 3.387-.848 5.93-3.391 8.469-5.93l5.082-6.773 5.082 6.773c5.082 5.93 12.703 8.469 20.324 5.93ZM706.255 865.49c0 17.782 14.395 32.18 32.18 32.18 17.782 0 32.18-14.395 32.18-32.18 0-17.782-14.395-32.18-32.18-32.18s-32.18 14.398-32.18 32.18Zm-92.313.004c0 10.164 8.469 18.633 18.633 18.633s18.633-8.469 18.633-18.633-8.469-18.633-18.633-18.633-18.633 8.469-18.633 18.633Zm212.56-348.906c-10.164 0-18.633 8.469-18.633 18.633s8.469 18.633 18.633 18.633 18.633-8.469 18.633-18.633c0-11.008-8.469-18.629-18.633-18.633ZM632.578 337.904c10.164 0 18.633-8.469 18.633-18.633s-8.469-18.633-18.633-18.633-18.633 8.469-18.633 18.633c0 11.008 8.469 18.633 18.633 18.633Zm95.692 112.629c17.782 0 32.18-14.395 32.18-32.18 0-17.782-14.395-32.18-32.18-32.18-17.782 0-32.18 14.395-32.18 32.18s14.398 32.18 32.18 32.18Zm-89.767 91.46c-1.692 10.164-8.469 17.786-18.637 22.016 11.012 22.02 33.875 37.262 60.129 37.262h41.496c.844-2.539 1.692-5.082 2.539-7.621 3.391-7.621 10.165-13.551 18.633-16.09 9.316-2.543 18.633-1.695 26.254 2.539l29.641-27.098c-1.695-3.387-3.386-6.774-4.234-11.008Zm-49.964-6.769c0 10.164 8.469 18.633 18.633 18.633s18.633-8.469 18.633-18.633-8.469-18.633-18.633-18.633c-11.012 0-18.633 8.469-18.633 18.633ZM438.649 608.9c0 10.164 8.469 18.633 18.633 18.633s18.633-8.469 18.633-18.633-8.469-18.633-18.633-18.633-18.633 8.469-18.633 18.633Zm99.086 73.674c0-10.164-8.469-18.633-18.633-18.633s-18.633 8.469-18.633 18.633 8.469 18.633 18.633 18.633 18.629-8.469 18.633-18.633Zm187.157-60.129c-.848-1.692-1.695-2.539-1.695-3.387 0-.848-.848-2.539-.848-3.387h-41.496c-33.028 0-60.973-19.477-73.676-48.27-16.09 0-28.793-11.008-32.18-25.406h-43.191c-26.254 0-49.121 15.242-60.129 37.262 11.012 5.082 18.633 16.938 18.633 29.641 0 7.621-3.387 14.395-7.621 20.324l22.02 23.711c4.234-2.539 9.316-3.386 14.398-3.386 18.629 0 33.027 15.242 33.027 33.027 0 5.93-1.695 11.856-5.082 16.938l22.863 25.406c5.082 5.929 12.703 9.316 20.324 9.316 7.621 0 15.242-2.539 21.172-7.621Zm46.58-19.48c-2.543-7.621-10.164-12.703-17.785-12.703-1.695 0-4.234 0-5.929.848-5.079 1.695-8.469 5.082-11.008 9.316-1.696 4.234-2.543 9.316-.848 14.398 3.387 10.16 14.395 15.242 23.711 11.855 5.078-1.695 8.469-5.082 11.008-9.316 2.543-5.077 2.543-10.159.851-14.398Zm81.301 0c-2.543-7.621-10.164-12.703-17.785-12.703-1.695 0-4.234 0-5.929.848-5.079 1.695-8.469 5.082-11.008 9.316-1.696 4.234-2.543 9.316-.848 14.398 3.387 10.16 14.395 15.242 23.711 11.855 5.078-1.695 8.469-5.082 11.008-9.316 2.539-5.077 2.539-10.159.851-14.398Zm142.272 5.929c0-10.164-8.469-18.633-18.633-18.633s-18.633 8.469-18.633 18.633 8.469 18.633 18.633 18.633c10.16 0 18.629-8.469 18.633-18.633Z" style="fill: white;"/>
    <path d="m177.37 213.167-272.132 40.514" style="stroke: rgb(0, 0, 0); fill: white;"/>
  </g>
</svg>
