<?xml version="1.0" encoding="utf-8"?>
<svg width="1200pt" height="1200pt" version="1.1" viewBox="0 0 1200 1200" xmlns="http://www.w3.org/2000/svg">
  <path d="M 967.104 1163.624 L 322.279 1163.624 C 256.97 1163.624 204.258 1107.535 204.258 1042.231 L 204.258 1038.833 C 204.258 1015.172 211.21 993.133 223.177 974.646 L 312.486 815.78 C 312.486 815.78 323.193 792.941 368.16 792.941 L 867.082 792.941 C 867.082 792.941 909.913 791.512 927.754 821.489 C 945.6 851.467 987.709 920.706 987.709 920.706 C 987.709 920.706 1005.204 964.303 980.826 964.2 C 830.047 963.565 333.956 964.2 333.956 964.2 C 294.021 964.2 261.639 995.809 261.639 1034.791 C 261.639 1073.773 294.015 1105.382 333.956 1105.382 L 977.211 1105.382 C 977.211 1105.382 990.087 1125.801 993.223 1133.575 C 997.04 1143.029 1001.261 1163.618 967.116 1163.618 L 967.104 1163.624 Z" style="fill: rgb(15, 48, 87);"/>
  <path d="M 912.704 414.985 L 731.364 310.275 L 731.364 375.545 C 699.04 380.436 668.38 393.072 642.001 412.381 L 642.001 303.091 C 641.915 254.349 624.392 207.239 592.595 170.291 C 560.798 133.346 516.829 108.994 468.635 101.646 L 468.635 36.376 L 287.295 141.086 L 468.635 245.796 L 468.631 187.194 C 494.213 193.967 516.842 209.003 533.002 229.956 C 549.162 250.913 557.947 276.62 557.994 303.081 L 557.994 890.461 L 641.994 890.461 L 641.994 576.971 C 642.04 550.51 650.829 524.803 666.986 503.85 C 683.146 482.893 705.775 467.862 731.357 461.088 L 731.357 519.69 L 912.704 414.985 Z" style="fill: rgb(15, 48, 87);"/>
</svg>